HIERARCHY
ROOT pelvis
{
  OFFSET 0 100 0
  CHANNELS 6 Xposition Yposition Zposition Zrotation Xrotation Yrotation
  JOINT pelvis_right_femur
  {
    OFFSET -10.78128 -3.44521 -0.5502486
    CHANNELS 3 Zrotation Xrotation Yrotation
    JOINT right_femur_tibia
    {
      OFFSET -0.8047443 -44.0398 -0.1307829
      CHANNELS 3 Zrotation Xrotation Yrotation
      JOINT right_tibia_foot
      {
        OFFSET 3.006224 -47.83518 -5
        CHANNELS 3 Zrotation Xrotation Yrotation
        End Site
        {
          OFFSET 0 -5 15
        }
      }
    }
  }
  JOINT pelvis_left_femur
  {
    OFFSET 10.78128 -3.44521 -0.5502486
    CHANNELS 3 Zrotation Xrotation Yrotation
    JOINT left_femur_tibia
    {
      OFFSET 0.8047443 -44.0398 -0.1307829
      CHANNELS 3 Zrotation Xrotation Yrotation
      JOINT left_tibia_foot
      {
        OFFSET -4.370144 -48.10324 -4.275266
        CHANNELS 3 Zrotation Xrotation Yrotation
        End Site
        {
          OFFSET 0 -5 15
        }
      }
    }
  }
  JOINT pelvis_spine1
  {
    OFFSET 0 6.468898 -3.129235
    CHANNELS 3 Zrotation Xrotation Yrotation
    JOINT spine1
    {
      OFFSET 0 23.15396 4.99043
      CHANNELS 3 Zrotation Xrotation Yrotation
      JOINT spine2
      {
        OFFSET 0 20.79997 -5.064912
        CHANNELS 3 Zrotation Xrotation Yrotation
        JOINT neck
        {
          OFFSET 0 14.38658 9.616178
          CHANNELS 3 Zrotation Xrotation Yrotation
          End Site
          {
            OFFSET 0 20 0
          }
        }
      }
      JOINT right_manubrium
      {
        OFFSET -5.722621 16.35077 3.967754
        CHANNELS 3 Zrotation Xrotation Yrotation
        JOINT right_clavicle
        {
          OFFSET -13.16364 1.694482 -4.693211
          CHANNELS 3 Zrotation Xrotation Yrotation
          JOINT right_humerus
          {
            OFFSET -28.5034 -0.3100689 -2.792744
            CHANNELS 3 Zrotation Xrotation Yrotation
            JOINT right_radius
            {
              OFFSET -25.15693 0.02248979 -1.271978
              CHANNELS 3 Zrotation Xrotation Yrotation
              End Site
              {
                OFFSET -15 0 0
              }
            }
          }
        }
      }
      JOINT left_manubrium
      {
        OFFSET 5.722621 16.35077 3.967754
        CHANNELS 3 Zrotation Xrotation Yrotation
        JOINT left_clavicle
        {
          OFFSET 13.16364 1.694482 -4.693211
          CHANNELS 3 Zrotation Xrotation Yrotation
          JOINT left_humerus
          {
            OFFSET 29.39168 -1.063119 -2.237045
            CHANNELS 3 Zrotation Xrotation Yrotation
            JOINT left_radius
            {
              OFFSET 24.59957 -0.9528479 0.9047498
              CHANNELS 3 Zrotation Xrotation Yrotation
              End Site
              {
                OFFSET 15 -0 -0
              }
            }
          }
        }
      }
    }
  }
}
MOTION
Frames: 23
Frame Time: 0.0416666666667
0 103.5113 0 0.8128806 -0.7715092 0.1581756 3.2182 -15.37346 8.108396 -0 36.7913 -0 -6.078122 -15.10786 -2.475229 -7.20283 4.873515 -22.28964 -0 2.94738 -0 7.419957 -18.13517 26.25973 -1.705744 -2.320328 4.538938 2.865131 9.664101 -7.629007 0.6958846 21.51119 7.045003 4.144737 -26.77435 8.254319 5.150708 -20.10337 11.38081 86.41238 36.87025 -18.82935 -0 0 13.55945 -6.11391 6.293159 5.045957 6.222677 -21.74082 -1.342895 -95.39492 25.66448 25.06085 0 0 -16.23126 10.34874 17.23924 2.73752
0.4587836 103.3042 1.163793 0.8234546 -0.7040021 0.319394 3.414245 -16.97776 8.536174 -0 38.23505 -0 -6.055342 -14.83752 -2.764306 -7.366265 6.585301 -22.84972 -0 4.514887 -0 7.542203 -18.37768 26.3478 -1.739619 -2.321009 4.53837 2.889391 9.527515 -7.564726 0.71107 21.56661 7.057914 4.15822 -26.9342 8.328307 5.252556 -20.11954 11.32637 86.1586 37.12623 -18.58793 -0 0 13.67106 -5.674277 6.047807 4.96591 6.223441 -21.5526 -1.170934 -95.82494 26.02116 25.47084 0 0 -15.80667 10.27322 17.43939 2.906558
0.8348182 103.137 2.728442 0.7616476 -0.898891 0.5774314 3.460199 -19.83543 7.911976 -0 37.84966 -0 -5.860071 -12.62303 -3.199696 -7.177293 9.651619 -22.12223 -0 5.993195 -0 6.655296 -19.0714 25.14382 -1.727811 -2.214569 4.466309 2.809235 9.641007 -7.734752 0.7219922 21.44697 7.12741 4.111717 -26.35154 8.295042 5.203701 -19.65095 11.36553 86.72836 36.7878 -19.40998 -0 0 13.17991 -6.874151 7.002818 5.136605 6.266444 -21.83225 -1.464042 -94.53505 25.87391 23.85793 0 0 -17.34687 9.684966 16.70332 3.492562
1.152212 102.8758 4.474347 0.6407605 -0.7421656 0.838505 3.674795 -21.8398 7.432499 -0 35.47647 -0 -6.046134 -11.96405 -3.311551 -6.929302 11.23516 -21.66534 -0 6.067127 -0 6.374456 -19.54648 24.46082 -1.735677 -2.166797 4.374316 2.807196 9.636252 -7.842252 0.7332417 21.41396 7.178139 4.099424 -26.15209 8.323436 5.220352 -19.34895 11.35428 87.05052 36.72832 -19.91995 -0 0 12.80589 -7.215543 7.349638 5.123967 6.317332 -21.97162 -1.555424 -93.93876 25.95491 22.98873 0 0 -18.14198 9.457285 16.43945 3.736207
1.396228 102.4026 6.558667 0.4518669 -0.5555106 1.108915 3.892175 -24.33507 6.535037 -0 31.40254 -0 -6.320432 -10.98088 -3.392198 -6.520533 13.08851 -20.74405 -0 5.772106 -0 5.842628 -20.16505 23.34089 -1.745914 -2.108421 4.243697 2.812737 9.626093 -7.988433 0.7477006 21.3755 7.244331 4.085473 -25.91328 8.364355 5.242015 -18.95165 11.3365 87.48758 36.65538 -20.60544 -0 0 12.29224 -7.611418 7.76888 5.090071 6.388693 -22.16326 -1.6706 -93.16757 26.05528 21.84392 0 0 -19.18047 9.200395 16.12003 4.008563
1.571956 101.7042 9.016814 0.2616405 -0.4097673 1.390365 4.045645 -26.67372 5.569138 -0 27.21154 -0 -6.576235 -9.934532 -3.458301 -6.12169 14.81745 -19.7212 -0 5.513488 -0 5.217476 -20.72848 22.14456 -1.757874 -2.064294 4.09309 2.841478 9.598994 -8.14039 0.7607189 21.35218 7.308987 4.079533 -25.753 8.417127 5.271329 -18.56759 11.30973 87.93194 36.62417 -21.30006 -0 0 11.74583 -7.831077 8.068718 5.000539 6.470118 -22.36109 -1.759028 -92.47603 26.17712 20.76019 0 0 -20.14882 9.052016 15.89498 4.163492
1.68318 100.7617 11.99812 0.06835219 -0.4053775 1.697128 4.062798 -28.92522 4.336069 -0 22.75462 -0 -6.744579 -8.415513 -3.550883 -5.706689 16.59247 -18.32218 -0 5.530946 -0 4.241645 -21.23384 20.60438 -1.771818 -2.020664 3.916697 2.882804 9.561834 -8.312397 0.7747416 21.33235 7.380513 4.075956 -25.60548 8.480793 5.307052 -18.14383 11.27606 88.43255 36.60223 -22.07969 -0 0 11.12196 -8.005197 8.355685 4.878065 6.565036 -22.58472 -1.846964 -91.73533 26.3142 19.57092 0 0 -21.20231 8.930196 15.68169 4.288889
1.741646 99.59741 15.63258 -0.1045029 -0.5932972 2.037911 3.934567 -30.78136 2.930713 -0 18.47675 -0 -6.784048 -6.490805 -3.684506 -5.324523 18.21152 -16.59528 -0 6.162885 -0 2.916171 -21.54455 18.79787 -1.785841 -1.98043 3.725922 2.933409 9.520845 -8.495053 0.7884207 21.31585 7.453815 4.074624 -25.47618 8.549113 5.343912 -17.70771 11.23922 88.9643 36.58217 -22.90012 -0 0 10.45797 -8.133955 8.617268 4.732542 6.667213 -22.82506 -1.93341 -90.98281 26.44465 18.34218 0 0 -22.2838 8.845502 15.48918 4.371081
1.764214 98.28072 20.04676 -0.2365932 -1.039413 2.412916 3.697642 -31.94536 1.453201 -0 14.71202 -0 -6.654548 -4.198266 -3.890814 -4.998741 19.48263 -14.53637 -0 7.955783 -0 1.209119 -21.48823 16.76596 -1.799585 -1.939589 3.532345 2.984374 9.480057 -8.680232 0.8023492 21.29928 7.527662 4.072869 -25.34436 8.617775 5.380006 -17.26602 11.20194 89.50618 36.5526 -23.7316 -0 0 9.784006 -8.265989 8.882791 4.586073 6.770487 -23.06995 -2.021947 -90.21926 26.55967 17.09058 0 0 -23.38087 8.761983 15.29357 4.450959
1.772065 96.96024 25.28772 -0.2980616 -1.772033 2.804409 3.485174 -32.031 0.2021024 -0 12.07916 -0 -6.337833 -1.82244 -4.200924 -4.754285 20.09835 -12.33257 -0 11.57577 -0 -0.7465119 -20.85525 14.74861 -1.810083 -1.897646 3.370924 3.018657 9.452855 -8.839655 0.8154189 21.27899 7.591947 4.067143 -25.19448 8.671955 5.40544 -16.87459 11.17312 89.97972 36.49613 -24.45322 -0 0 9.206465 -8.459068 9.165552 4.484934 6.855999 -23.28343 -2.112609 -89.51748 26.62669 15.96209 0 0 -24.37068 8.648295 15.08146 4.5633
1.783408 95.86018 31.29059 -0.2677841 -2.778558 3.1725 3.476419 -30.73581 -0.4759676 -0 11.09361 -0 -5.850675 0.2451859 -4.634297 -4.577872 19.76445 -10.2416 -0 17.65065 -0 -2.740326 -19.47752 13.05118 -1.81279 -1.852424 3.300274 3.006699 9.460923 -8.925835 0.8262484 21.24858 7.630405 4.05107 -24.99585 8.687444 5.404162 -16.62325 11.16732 90.25268 36.38628 -24.86415 -0 0 8.902761 -8.818648 9.494524 4.509816 6.892172 -23.40377 -2.206056 -88.99305 26.60021 15.19468 0 0 -25.05391 8.443463 14.82439 4.776648
1.802676 95.23614 37.85742 -0.151483 -3.974006 3.450367 3.813141 -27.90626 -0.3201931 -0 11.83111 -0 -5.283923 1.503438 -5.156215 -4.409237 18.20748 -8.540511 -0 26.43767 -0 -4.509288 -17.29222 11.98311 -1.802609 -1.801441 3.390274 2.913402 9.528676 -8.880901 0.8334016 21.20143 7.623352 4.017374 -24.71427 8.6362 5.357264 -16.62037 11.20113 90.16639 36.19373 -24.72264 -0 0 9.086194 -9.465824 9.897628 4.757745 6.84149 -23.35504 -2.301156 -88.78795 26.43326 15.07848 0 0 -25.18522 8.077172 14.49073 5.170979
1.811615 95.28977 44.66316 0.004071368 -5.193682 3.537392 4.53038 -23.49165 0.7236864 -0 13.64824 -0 -4.828344 1.361034 -5.638724 -4.143776 15.10949 -7.43332 -0 37.54229 -0 -5.792031 -14.35427 11.77903 -1.778454 -1.741266 3.682636 2.71666 9.663405 -8.666498 0.8373755 21.13605 7.560007 3.962012 -24.32991 8.505581 5.257927 -16.92727 11.28093 89.62368 35.9038 -23.88067 -0 0 9.88804 -10.46769 10.38362 5.289561 6.68213 -23.08171 -2.389921 -88.99315 26.11719 15.78961 0 0 -24.60621 7.496506 14.05994 5.811177
1.7761 96.05871 51.30776 0.11979 -6.199523 3.313678 5.495286 -17.63672 2.418581 -0 15.31747 -0 -4.722233 -0.661931 -5.873417 -3.685704 10.24403 -6.99233 -0 49.36163 -0 -6.370946 -10.93545 12.52277 -1.745122 -1.670454 4.153545 2.427076 9.844788 -8.295627 0.8406557 21.05929 7.448018 3.888397 -23.85898 8.311677 5.119331 -17.50456 11.39528 88.67712 35.52685 -22.4136 -0 0 11.24332 -11.76837 10.92199 6.075847 6.427864 -22.59319 -2.459624 -89.57654 25.694 17.2401 0 0 -23.37392 6.715021 13.54319 6.689625
1.680541 97.33203 57.49261 0.1323407 -6.786053 2.709513 6.378948 -10.9706 4.14974 -0 15.62554 -0 -5.043733 -4.28788 -5.697591 -3.023574 3.959361 -7.001867 -0 58.76901 -0 -6.237546 -7.650042 13.94713 -1.710447 -1.591442 4.714296 2.088565 10.03621 -7.83791 0.8460237 20.98233 7.312091 3.806441 -23.3484 8.093012 4.967166 -18.21551 11.52038 87.53134 35.09567 -20.62529 -0 0 12.88575 -13.20645 11.46051 6.996677 6.126719 -21.97814 -2.505211 -90.36889 25.23379 19.07118 0 0 -21.78224 5.823414 12.98029 7.707067
1.562504 98.71497 63.21852 0.05648284 -6.956579 1.784163 6.834533 -4.479886 5.187046 -0 14.33329 -0 -5.551783 -8.21136 -5.119694 -2.216187 -2.686125 -6.975898 -0 62.58787 -0 -5.682242 -5.232948 15.46045 -1.679623 -1.5091 5.26922 1.7496 10.21087 -7.37474 0.8546011 20.91298 7.177355 3.725817 -22.84369 7.884297 4.820622 -18.91602 11.63629 86.40936 34.64591 -18.85033 -0 0 14.52061 -14.62502 11.96185 7.92136 5.829404 -21.34876 -2.535395 -91.16999 24.79093 20.88691 0 0 -20.17307 4.932483 12.41334 8.733442
1.491536 99.8288 68.7214 -0.04062596 -6.88821 0.6917413 6.777966 1.195813 5.255013 -0 12.20246 -0 -5.933193 -11.21097 -4.262486 -1.31193 -8.728786 -6.570249 -0 60.11 -0 -5.035601 -3.993141 16.62903 -1.652821 -1.426262 5.784752 1.4276 10.36548 -6.937254 0.8659469 20.85233 7.051549 3.649426 -22.35878 7.694362 4.681623 -19.55799 11.73858 85.39183 34.18904 -17.20916 -0 0 16.04132 -15.97667 12.41965 8.803627 5.553175 -20.7521 -2.559997 -91.90142 24.37422 22.54513 0 0 -18.67582 4.088903 11.8578 9.710077
1.522725 100.4324 74.23391 -0.1152535 -6.718248 -0.425714 6.377355 6.032537 4.607847 -0 9.960623 -0 -6.102013 -13.11126 -3.249106 -0.3424038 -13.92852 -5.814381 -0 53.01921 -0 -4.412039 -3.709345 17.43812 -1.628209 -1.342539 6.282392 1.111943 10.50812 -6.507711 0.8794972 20.79842 6.928238 3.57499 -21.88406 7.514085 4.543518 -20.17607 11.83245 84.4324 33.71382 -15.62799 -0 0 17.51361 -17.29663 12.84089 9.671567 5.286339 -20.16566 -2.579003 -92.6075 23.96406 24.13558 0 0 -17.21345 3.273606 11.30587 10.65803
1.685541 100.4147 79.88043 -0.152302 -6.503205 -1.478118 5.815974 10.22551 3.622846 -0 8.023459 -0 -6.110406 -14.26684 -2.176846 0.6372712 -18.41174 -4.909685 -0 43.38309 -0 -3.794194 -4.02482 18.05155 -1.605047 -1.256591 6.786385 0.7904135 10.64317 -6.064322 0.8952687 20.75021 6.801119 3.500221 -21.40992 7.335749 4.402618 -20.80703 11.92188 83.47709 33.20935 -14.0217 -0 0 19.01386 -18.61877 13.22947 10.55643 5.016005 -19.55823 -2.587253 -93.34436 23.54628 25.76141 0 0 -15.69279 2.458327 10.74772 11.61207
1.988406 99.7784 85.69202 -0.144686 -6.294846 -2.414252 5.192783 13.83289 2.615542 -0 6.853555 -0 -5.994678 -14.92579 -1.157577 1.507345 -22.17542 -4.080262 -0 33.03493 -0 -3.187611 -4.65642 18.59328 -1.584434 -1.16793 7.287764 0.4672377 10.76637 -5.614482 0.9138252 20.70847 6.673307 3.425612 -20.93854 7.163616 4.262241 -21.43436 12.00433 82.54386 32.6835 -12.42093 -0 0 20.51446 -19.92986 13.58665 11.44558 4.746789 -18.938 -2.584529 -94.09266 23.13306 27.38315 0 0 -14.14831 1.645845 10.18435 12.56999
2.415083 98.66075 91.64498 -0.09170277 -6.189928 -3.208786 4.548287 16.70959 1.861856 -0 7.097915 -0 -5.744637 -15.08846 -0.3572787 2.075156 -24.95483 -3.543837 -0 24.01201 -0 -2.694288 -5.352872 19.0867 -1.568014 -1.07778 7.738271 0.1660265 10.8691 -5.201967 0.9357728 20.67495 6.55788 3.354367 -20.48338 7.013096 4.129056 -21.98063 12.07169 81.73428 32.16609 -10.99326 -0 0 21.86196 -21.17023 13.91732 12.27632 4.503739 -18.36621 -2.58319 -94.73531 22.76299 28.79033 0 0 -12.77352 0.8815268 9.630936 13.47481
2.925997 97.32891 97.7181 0.003662679 -6.323657 -3.844645 3.867349 18.66459 1.538097 -0 9.448405 -0 -5.305776 -14.52251 0.04867763 2.155968 -26.38235 -3.42818 -0 18.1194 -0 -2.499931 -5.919815 19.45569 -1.555961 -0.9891935 8.076156 -0.08262042 10.94659 -4.884281 0.9610514 20.65109 6.46981 3.290341 -20.06205 6.900583 4.006126 -22.35162 12.11575 81.17662 31.69383 -9.951218 -0 0 22.85824 -22.26732 14.22929 12.96898 4.318741 -17.92796 -2.605333 -95.11773 22.47805 29.71667 0 0 -11.81825 0.2341907 9.113288 14.23625
3.476401 96.101 103.9291 0.1410144 -6.776018 -4.294162 3.09813 19.65144 1.639542 -0 14.23314 -0 -4.622991 -12.99355 -0.01400788 1.696552 -26.29584 -3.71375 -0 15.80956 -0 -2.726192 -6.322484 19.61716 -1.546725 -0.9051273 8.270152 -0.2626105 11.00134 -4.691519 0.9889689 20.63732 6.415102 3.235181 -19.68512 6.831684 3.890613 -22.50437 12.13404 80.9314 31.28574 -9.397914 -0 0 23.40213 -23.18357 14.5276 13.4816 4.207654 -17.67138 -2.666847 -95.16056 22.29307 30.03262 0 0 -11.40787 -0.2528456 8.652979 14.79443
